<svg width="42" height="26" viewBox="0 0 42 26" fill="none" xmlns="http://www.w3.org/2000/svg">
<g clip-path="url(#clip0_485_3080)">
<path d="M41.7 0H0V25.77H41.7V0Z" fill="white"/>
<path d="M41.7001 2.86011H14.3201V5.72011H41.7001V2.86011Z" fill="#0038A2"/>
<path d="M41.7001 8.59009H14.3201V11.4501H41.7001V8.59009Z" fill="#0038A2"/>
<path d="M41.7 14.3201H0V17.1801H41.7V14.3201Z" fill="#0038A2"/>
<path d="M41.7 20.05H0V22.91H41.7V20.05Z" fill="#0038A2"/>
<path d="M6.83992 8.56006L7.30992 9.27006C5.35992 10.6801 6.54992 11.5101 5.16992 11.9601C6.02992 11.1201 5.02992 11.0501 5.75992 9.31006L6.83992 8.56006Z" fill="#F6CB16"/>
<path d="M4.98999 12.07L5.13999 11.93C5.54999 11.53 5.51999 11.32 5.46999 10.98C5.41999 10.64 5.34999 10.17 5.71999 9.29L5.73999 9.25L5.82999 9.29L5.80999 9.33C5.44999 10.19 5.51999 10.64 5.56999 10.97C5.60999 11.27 5.64999 11.5 5.34999 11.85C5.80999 11.65 5.86999 11.39 5.96999 11.04C6.08999 10.6 6.23999 10 7.24999 9.26L6.76999 8.55L6.84999 8.5L7.37999 9.28L7.33999 9.31C6.32999 10.04 6.17999 10.61 6.05999 11.06C5.94999 11.47 5.86999 11.79 5.18999 12.01L4.99999 12.07H4.98999Z" fill="black"/>
<path d="M5.1899 12L5.1499 11.91C5.6199 11.69 5.6699 11.34 5.7499 10.8C5.8299 10.29 5.9299 9.59997 6.4599 8.71997L6.5399 8.76997C6.0199 9.62997 5.9199 10.28 5.8399 10.81C5.7599 11.35 5.6999 11.75 5.1899 11.99V12Z" fill="black"/>
<path d="M7.15996 7.15991H8.09996L7.15996 12.3599L6.20996 7.15991H7.15996V12.3599V7.15991Z" fill="#F6CB16"/>
<path d="M7.15991 12.6201L6.15991 7.11011H8.15991L7.15991 12.6201ZM7.20991 7.21011V11.8401L8.04991 7.21011H7.20991ZM6.26991 7.21011L7.10991 11.8401V7.21011H6.26991Z" fill="black"/>
<path d="M5.9401 7.91994L5.7701 8.75994C3.4001 8.37994 3.6501 9.80994 2.3501 9.14994C3.5501 9.15994 2.9001 8.40994 4.6401 7.68994L5.9301 7.91994H5.9401Z" fill="#F6CB16"/>
<path d="M2.9599 9.36988C2.7899 9.36988 2.5899 9.31988 2.3299 9.18988L2.1499 9.09988H2.3499C2.9299 9.09988 3.0499 8.93988 3.2499 8.66988C3.4599 8.38988 3.7399 8.00988 4.6199 7.64988L4.6599 7.62988L4.6999 7.71988L4.6599 7.73988C3.7999 8.09988 3.5299 8.45988 3.3299 8.72988C3.1499 8.97988 3.0099 9.15988 2.5599 9.19988C3.0199 9.37988 3.2599 9.23988 3.5699 9.05988C3.9599 8.82988 4.4999 8.51988 5.7299 8.70988L5.8999 7.86988L5.9899 7.88988L5.8099 8.81988H5.7599C4.5199 8.60988 4.0199 8.90988 3.6099 9.13988C3.3899 9.26988 3.1999 9.37988 2.9499 9.37988L2.9599 9.36988Z" fill="black"/>
<path d="M2.70009 9.26002C2.59009 9.26002 2.47009 9.24002 2.34009 9.19002L2.37009 9.10002C2.86009 9.27002 3.14009 9.06002 3.58009 8.74002C3.99009 8.43002 4.56009 8.02002 5.55009 7.77002L5.57009 7.86002C4.60009 8.10002 4.06009 8.49002 3.64009 8.81002C3.31009 9.06002 3.04009 9.25002 2.71009 9.25002L2.70009 9.26002Z" fill="black"/>
<path d="M7.15998 7.15999L7.82998 7.82999L3.47998 10.83L6.48998 6.48999L7.15998 7.15999L3.47998 10.83L7.15998 7.15999Z" fill="#F6CB16"/>
<path d="M3.30005 11.0199L6.49005 6.41992L7.91005 7.83992L3.31005 11.0299L3.30005 11.0199ZM7.16005 7.22992L3.89005 10.4999L7.76005 7.81992L7.17005 7.22992H7.16005ZM6.50005 6.55992L3.82005 10.4299L7.09005 7.15992L6.50005 6.56992V6.55992Z" fill="black"/>
<path d="M5.76011 6.82991L5.05011 7.29991C3.64011 5.34991 2.81011 6.53991 2.36011 5.15991C3.20011 6.01991 3.27011 5.02991 5.01011 5.74991L5.76011 6.82991Z" fill="#F6CB16"/>
<path d="M5.04 7.36999L5.01 7.32999C4.28 6.31999 3.71 6.16999 3.26 6.04999C2.85 5.93999 2.53 5.85999 2.31 5.17999L2.25 4.98999L2.39 5.13999C2.79 5.54999 3 5.51999 3.34 5.46999C3.68 5.41999 4.15 5.34999 5.03 5.71999L5.07 5.73999L5.03 5.82999L4.99 5.80999C4.13 5.44999 3.68 5.51999 3.35 5.56999C3.05 5.60999 2.82 5.64999 2.47 5.34999C2.67 5.80999 2.93 5.86999 3.28 5.96999C3.72 6.08999 4.32 6.23999 5.06 7.24999L5.77 6.77999L5.82 6.85999L5.04 7.38999V7.36999Z" fill="black"/>
<path d="M5.53006 6.5399C4.67006 6.0199 4.02006 5.9199 3.49006 5.8399C2.95006 5.7599 2.56006 5.6999 2.31006 5.1899L2.40006 5.1499C2.62006 5.6199 2.97006 5.6699 3.51006 5.7499C4.02006 5.8299 4.71006 5.9299 5.59006 6.4599L5.54006 6.5399H5.53006Z" fill="black"/>
<path d="M7.15996 7.15996V8.09996L1.95996 7.15996L7.15996 6.20996V7.15996H1.95996H7.15996Z" fill="#F6CB16"/>
<path d="M7.20995 8.15991L1.69995 7.15991L7.20995 6.15991V8.15991ZM2.48995 7.20991L7.11995 8.04991V7.20991H2.48995ZM2.48995 7.10991H7.11995V6.26991L2.48995 7.10991Z" fill="black"/>
<path d="M6.40005 5.94011L5.57005 5.78011C5.95005 3.41011 4.52005 3.66011 5.18005 2.36011C5.17005 3.56011 5.92005 2.91011 6.64005 4.65011L6.41005 5.94011H6.40005Z" fill="#F6CB16"/>
<path d="M6.43999 5.99992L5.50999 5.81992V5.77992C5.71999 4.53992 5.41999 4.03992 5.18999 3.62992C4.97999 3.26992 4.80999 2.97992 5.12999 2.34992L5.21999 2.16992V2.36992C5.21999 2.94992 5.37999 3.06992 5.64999 3.26992C5.92999 3.47992 6.30999 3.75992 6.66999 4.63992L6.68999 4.67992L6.59999 4.71992L6.57999 4.67992C6.21999 3.81992 5.85999 3.54992 5.58999 3.34992C5.33999 3.16992 5.15999 3.02992 5.11999 2.57992C4.93999 3.03992 5.06999 3.27992 5.25999 3.58992C5.48999 3.97992 5.79999 4.51992 5.60999 5.74992L6.44999 5.91992L6.42999 6.00992L6.43999 5.99992Z" fill="black"/>
<path d="M6.45003 5.57009C6.21003 4.60009 5.82003 4.06009 5.50003 3.63009C5.17003 3.19009 4.94003 2.87009 5.13003 2.34009L5.22003 2.37009C5.05003 2.86009 5.26003 3.14009 5.58003 3.58009C5.89003 3.99009 6.30003 4.56009 6.55003 5.55009L6.46003 5.57009H6.45003Z" fill="black"/>
<path d="M7.15998 7.15998L6.48998 7.82998L3.47998 3.47998L7.82998 6.48998L7.15998 7.15998L3.47998 3.47998L7.15998 7.15998Z" fill="#F6CB16"/>
<path d="M6.48005 7.90005L3.30005 3.30005L7.90005 6.49005L6.48005 7.91005V7.90005ZM3.82005 3.89005L6.50005 7.76005L7.09005 7.17005L3.82005 3.90005V3.89005ZM3.89005 3.82005L7.16005 7.09005L7.75005 6.50005L3.88005 3.82005H3.89005Z" fill="black"/>
<path d="M7.48001 5.76011L7.01001 5.05011C8.96001 3.64011 7.77001 2.81011 9.15001 2.36011C8.29001 3.20011 9.28001 3.27011 8.56001 5.01011L7.48001 5.76011Z" fill="#F6CB16"/>
<path d="M7.46994 5.82L6.93994 5.04L6.97994 5.01C7.98994 4.28 8.13994 3.71 8.25994 3.26C8.36994 2.85 8.44994 2.53 9.12994 2.31L9.31994 2.25L9.17994 2.39C8.76994 2.79 8.79994 3 8.84994 3.34C8.89994 3.68 8.96994 4.15 8.59994 5.03L8.57994 5.07L8.48994 5.03L8.50994 4.99C8.86994 4.13 8.79994 3.68 8.74994 3.35C8.70994 3.05 8.66994 2.82 8.96994 2.47C8.50994 2.67 8.44994 2.93 8.34994 3.28C8.22994 3.72 8.07994 4.32 7.06994 5.06L7.54994 5.77L7.46994 5.82Z" fill="black"/>
<path d="M7.86003 5.58006L7.78003 5.53006C8.30003 4.67006 8.40003 4.02006 8.48003 3.49006C8.56003 2.95006 8.62003 2.56006 9.13003 2.31006L9.17003 2.40006C8.70003 2.62006 8.65003 2.97006 8.57003 3.51006C8.50003 4.02006 8.39003 4.71006 7.86003 5.59006V5.58006Z" fill="black"/>
<path d="M7.15996 7.15996H6.20996L7.15996 1.95996L8.09996 7.15996H7.15996V1.95996V7.15996Z" fill="#F6CB16"/>
<path d="M8.15991 7.20995H6.15991L7.15991 1.69995L8.15991 7.20995ZM7.20991 7.10995H8.04991L7.20991 2.47995V7.10995ZM6.26991 7.10995H7.10991V2.48995L6.26991 7.11995V7.10995Z" fill="black"/>
<path d="M8.37988 6.40004L8.54988 5.56004C10.9199 5.94004 10.6699 4.51004 11.9699 5.17004C10.7699 5.16004 11.4199 5.91004 9.67988 6.63004L8.38988 6.40004H8.37988Z" fill="#F6CB16"/>
<path d="M9.64007 6.68998L9.60007 6.59998L9.64007 6.57998C10.5001 6.21998 10.7701 5.85998 10.9701 5.58998C11.1501 5.33998 11.2901 5.15998 11.7401 5.11998C11.2801 4.93998 11.0401 5.07998 10.7301 5.25998C10.3401 5.48998 9.80007 5.79998 8.57007 5.60998L8.41007 6.44998L8.32007 6.42998L8.50007 5.49998H8.54007C9.78007 5.70998 10.2801 5.40998 10.6901 5.17998C11.0501 4.96998 11.3401 4.79998 11.9701 5.11998L12.1501 5.20998H11.9501C11.3701 5.20998 11.2501 5.36998 11.0501 5.63998C10.8501 5.91998 10.5601 6.29998 9.68007 6.65998L9.64007 6.67998V6.68998Z" fill="black"/>
<path d="M8.77 6.54003L8.75 6.45003C9.72 6.21003 10.26 5.82003 10.69 5.50003C11.13 5.17003 11.45 4.94003 11.98 5.13003L11.95 5.22003C11.46 5.05003 11.18 5.26003 10.74 5.58003C10.33 5.89003 9.76 6.30003 8.77 6.55003V6.54003Z" fill="black"/>
<path d="M7.15999 7.15998L6.48999 6.48998L10.83 3.47998L7.82999 7.82998L7.15999 7.15998L10.83 3.47998L7.15999 7.15998Z" fill="#F6CB16"/>
<path d="M7.82991 7.90004L6.40991 6.48004L11.0099 3.29004L7.81991 7.89004L7.82991 7.90004ZM7.22991 7.16004L7.82991 7.75004L10.5099 3.88004L7.23991 7.15004L7.22991 7.16004ZM6.55991 6.50004L7.14991 7.09004L10.4199 3.82004L6.54991 6.50004H6.55991Z" fill="black"/>
<path d="M8.56006 7.48001L9.27006 7.01001C10.6801 8.96001 11.5101 7.77001 11.9601 9.15001C11.1201 8.29001 11.0501 9.29001 9.31006 8.56001L8.56006 7.48001Z" fill="#F6CB16"/>
<path d="M12.07 9.32993L11.93 9.17993C11.53 8.76993 11.32 8.79993 10.98 8.84993C10.64 8.89993 10.17 8.96993 9.29 8.59993L9.25 8.57993L9.29 8.48993L9.33 8.50993C10.19 8.86993 10.64 8.79993 10.97 8.74993C11.27 8.70993 11.5 8.66993 11.85 8.96993C11.65 8.50993 11.39 8.43993 11.04 8.34993C10.6 8.22993 10 8.07993 9.26 7.06993L8.55 7.53993L8.5 7.45993L9.28 6.92993L9.31 6.96993C10.04 7.97993 10.61 8.12993 11.06 8.24993C11.47 8.35993 11.79 8.43993 12.01 9.11993L12.07 9.30993V9.32993Z" fill="black"/>
<path d="M11.92 9.17003C11.7 8.70003 11.35 8.65003 10.81 8.57003C10.3 8.49003 9.60998 8.39003 8.72998 7.86003L8.77998 7.78003C9.63998 8.30003 10.29 8.40003 10.82 8.48003C11.36 8.56003 11.75 8.62003 12 9.13003L11.91 9.17003H11.92Z" fill="black"/>
<path d="M7.15991 7.15996V6.20996L12.3599 7.15996L7.15991 8.09996V7.15996H12.3599H7.15991Z" fill="#F6CB16"/>
<path d="M7.11011 8.15991V6.15991L12.6201 7.15991L7.11011 8.15991ZM7.21011 7.20991V8.04991L11.8401 7.20991H7.21011ZM7.21011 7.10991H11.8401L7.21011 6.26991V7.10991Z" fill="black"/>
<path d="M7.91994 8.37988L8.75994 8.54988C8.37994 10.9199 9.80994 10.6699 9.14994 11.9699C9.15994 10.7699 8.40994 11.4199 7.68994 9.67988L7.91994 8.38988V8.37988Z" fill="#F6CB16"/>
<path d="M9.09988 12.1601V11.9601C9.09988 11.3801 8.93988 11.2601 8.66988 11.0601C8.38988 10.8501 8.00988 10.5701 7.64988 9.69007L7.62988 9.65007L7.71988 9.61007L7.73988 9.65007C8.09988 10.5101 8.45988 10.7801 8.72988 10.9801C8.97988 11.1601 9.15988 11.3001 9.19988 11.7501C9.37988 11.2901 9.23988 11.0501 9.05988 10.7401C8.82988 10.3501 8.51988 9.81007 8.70988 8.58007L7.86988 8.41007L7.88988 8.32007L8.81988 8.50007V8.54007C8.61988 9.78007 8.90988 10.2801 9.13988 10.6901C9.34988 11.0501 9.51988 11.3401 9.19988 11.9701L9.10988 12.1501L9.09988 12.1601Z" fill="black"/>
<path d="M9.19002 11.98L9.10002 11.95C9.27002 11.46 9.06002 11.18 8.74002 10.74C8.43002 10.33 8.02002 9.76 7.77002 8.77L7.86002 8.75C8.10002 9.72 8.49002 10.26 8.81002 10.68C9.14002 11.12 9.37002 11.44 9.18002 11.97L9.19002 11.98Z" fill="black"/>
<path d="M7.15999 7.15999L7.82999 6.48999L10.83 10.83L6.48999 7.82999L7.15999 7.15999L10.83 10.83L7.15999 7.15999Z" fill="#F6CB16"/>
<path d="M11.0199 11.0199L6.41992 7.82991L7.83992 6.40991L11.0299 11.0099L11.0199 11.0199ZM6.55992 7.81991L10.4299 10.4999L7.15992 7.22991L6.56992 7.81991H6.55992ZM7.22992 7.15991L10.4999 10.4299L7.81992 6.55991L7.21992 7.14991L7.22992 7.15991Z" fill="black"/>
<path d="M7.15993 8.88993C8.11538 8.88993 8.88993 8.11538 8.88993 7.15993C8.88993 6.20448 8.11538 5.42993 7.15993 5.42993C6.20448 5.42993 5.42993 6.20448 5.42993 7.15993C5.42993 8.11538 6.20448 8.88993 7.15993 8.88993Z" fill="#F6CB16"/>
<path d="M7.15988 8.93988C6.17988 8.93988 5.37988 8.13988 5.37988 7.15988C5.37988 6.17988 6.17988 5.37988 7.15988 5.37988C8.13988 5.37988 8.93988 6.17988 8.93988 7.15988C8.93988 8.13988 8.13988 8.93988 7.15988 8.93988ZM7.15988 5.46988C6.22988 5.46988 5.46988 6.22988 5.46988 7.14988C5.46988 8.06988 6.22988 8.83988 7.15988 8.83988C8.08988 8.83988 8.83988 8.07988 8.83988 7.14988C8.83988 6.21988 8.07988 5.46988 7.15988 5.46988Z" fill="black"/>
<path d="M7.97997 6.61006C8.08997 6.70006 7.99997 6.91006 7.88997 6.91006C7.77997 6.91006 7.57997 6.72006 7.66997 6.60006L7.97997 6.62006V6.61006ZM8.42997 6.47006C8.31997 6.60006 8.25997 6.38006 7.85997 6.38006C7.45997 6.38006 7.39997 6.62006 7.33997 6.57006C7.27997 6.52006 7.66997 6.24006 7.79997 6.22006C7.92997 6.20006 8.28997 6.33006 8.42997 6.47006Z" fill="black"/>
<path d="M7.50996 6.80003C7.56996 6.71003 7.64996 6.89003 7.82996 6.89003C8.00996 6.89003 8.09996 6.84003 8.20996 6.76003C8.31996 6.68003 8.04996 6.95003 7.87996 6.95003C7.70996 6.95003 7.46996 6.86003 7.51996 6.79003L7.50996 6.80003ZM7.45996 6.75003C7.47996 6.56003 7.62996 6.53003 7.88996 6.53003C8.14996 6.53003 8.24996 6.72003 8.34996 6.77003C8.23996 6.77003 8.14996 6.61003 7.88996 6.61003C7.62996 6.61003 7.63996 6.61003 7.45996 6.77003V6.75003Z" fill="black"/>
<path d="M7.16008 7.63009C7.27008 7.63009 7.30008 7.55009 7.43008 7.55009C7.56008 7.55009 7.73008 7.60009 7.81008 7.66009C7.83008 7.68009 7.76008 7.53009 7.64008 7.52009C7.51008 7.50009 7.56008 7.30009 7.42008 7.27009C7.42008 7.33009 7.47008 7.32009 7.48008 7.41009C7.48008 7.49009 7.34008 7.49009 7.31008 7.41009C7.34008 7.54009 7.25008 7.54009 7.17008 7.54009V7.63009H7.16008ZM7.16008 8.21009C7.55008 8.21009 7.49008 8.13009 8.01008 7.91009C7.63008 7.96009 7.55008 8.08009 7.16008 8.08009H7.08008L7.16008 8.21009ZM8.07008 8.06009C8.01008 7.95009 8.02008 7.98009 7.90008 7.81009C8.03008 7.90009 8.06008 7.95009 8.07008 8.06009ZM7.16008 7.84009C7.25008 7.84009 7.29008 7.81009 7.41008 7.81009C7.53008 7.81009 7.83008 7.98009 8.01008 7.92009C7.65008 8.06009 7.79008 7.97009 7.16008 7.97009H7.08008L7.16008 7.84009ZM8.04008 6.89009C8.24008 6.78009 8.12008 6.62009 8.04008 6.59009C8.07008 6.62009 8.20008 6.78009 8.04008 6.89009Z" fill="black"/>
<path d="M6.33988 6.61006C6.22988 6.70006 6.31988 6.91006 6.42988 6.91006C6.53988 6.91006 6.74988 6.72006 6.64988 6.60006L6.32988 6.62006L6.33988 6.61006ZM5.87988 6.47006C5.98988 6.60006 6.04988 6.38006 6.44988 6.38006C6.84988 6.38006 6.90988 6.62006 6.96988 6.57006C7.02988 6.52006 6.63988 6.24006 6.50988 6.22006C6.37988 6.20006 6.01988 6.33006 5.87988 6.47006Z" fill="black"/>
<path d="M6.80997 6.80003C6.74997 6.71003 6.66997 6.89003 6.49997 6.89003C6.32997 6.89003 6.22997 6.84003 6.11997 6.76003C6.00997 6.68003 6.27997 6.95003 6.44997 6.95003C6.61997 6.95003 6.85997 6.86003 6.80997 6.79003V6.80003ZM6.85997 6.75003C6.83997 6.56003 6.68997 6.53003 6.42997 6.53003C6.16997 6.53003 6.06997 6.72003 5.96997 6.77003C6.07997 6.77003 6.16997 6.61003 6.42997 6.61003C6.68997 6.61003 6.67997 6.61003 6.85997 6.77003V6.75003Z" fill="black"/>
<path d="M7.1601 7.63009C7.0501 7.63009 7.0201 7.55009 6.8901 7.55009C6.7601 7.55009 6.59011 7.60009 6.51011 7.66009C6.49011 7.68009 6.5601 7.53009 6.6801 7.52009C6.8101 7.50009 6.76011 7.30009 6.90011 7.27009C6.90011 7.33009 6.85011 7.32009 6.84011 7.41009C6.84011 7.49009 6.98011 7.49009 7.01011 7.41009C6.98011 7.54009 7.07011 7.54009 7.15011 7.54009V7.63009H7.1601ZM7.1601 8.21009C6.7701 8.21009 6.8301 8.13009 6.3101 7.91009C6.6901 7.96009 6.7701 8.08009 7.1601 8.08009H7.2401L7.1601 8.21009ZM6.25011 8.06009C6.31011 7.95009 6.30011 7.98009 6.42011 7.81009C6.29011 7.90009 6.26011 7.95009 6.25011 8.06009ZM7.1601 7.84009C7.0701 7.84009 7.0301 7.81009 6.9101 7.81009C6.7901 7.81009 6.4801 7.98009 6.3101 7.92009C6.6701 8.06009 6.5301 7.97009 7.1601 7.97009H7.2401L7.1601 7.84009ZM6.28011 6.89009C6.08011 6.78009 6.20011 6.62009 6.28011 6.59009C6.25011 6.62009 6.12011 6.78009 6.28011 6.89009Z" fill="black"/>
<path d="M7.16007 8.36011C7.08007 8.36011 6.88007 8.41011 7.16007 8.41011C7.44007 8.41011 7.24007 8.36011 7.16007 8.36011Z" fill="black"/>
</g>
<defs>
<clipPath id="clip0_485_3080">
<rect width="41.7" height="25.77" fill="white"/>
</clipPath>
</defs>
</svg>
