<svg width="43" height="27" viewBox="0 0 43 27" fill="none" xmlns="http://www.w3.org/2000/svg">
<g clip-path="url(#clip0_485_3056)">
<path d="M42.39 0H0V26.2H42.39V0Z" fill="#74A6D9"/>
<path d="M42.39 8.72998H0V17.46H42.39V8.72998Z" fill="white"/>
<path d="M24.7701 13.06L22.5501 12.98C22.9501 12.94 23.2101 12.7 23.6001 12.74C24.0401 12.78 24.2901 12.54 24.4601 12.48C24.6301 12.42 24.7301 12.54 24.7601 12.49C24.7901 12.44 24.6501 12.33 24.4001 12.36C24.1601 12.4 24.0801 12.58 23.5401 12.54C23.0501 12.5 22.9001 12.72 22.5001 12.7L24.5001 11.78C24.5001 11.78 24.5601 11.75 24.5501 11.71C24.5301 11.67 24.4701 11.69 24.4701 11.69L22.3901 12.46C22.7401 12.27 22.8901 11.95 23.2701 11.84C23.6901 11.71 23.8301 11.39 23.9701 11.27C24.1101 11.15 24.2501 11.22 24.2501 11.16C24.2501 11.1 24.0901 11.05 23.8701 11.18C23.6601 11.31 23.6601 11.51 23.1501 11.67C22.6801 11.82 22.6301 12.08 22.2501 12.22L23.7501 10.61C23.7501 10.61 23.8001 10.56 23.7701 10.53C23.7401 10.5 23.6901 10.55 23.6901 10.55L22.0601 12.06C22.3101 11.75 22.3301 11.4 22.6301 11.15C22.9701 10.87 22.9801 10.52 23.0601 10.36C23.1401 10.2 23.3001 10.21 23.2801 10.16C23.2601 10.11 23.0901 10.12 22.9401 10.32C22.7901 10.52 22.8701 10.7 22.4601 11.05C22.0801 11.37 22.1301 11.63 21.8401 11.9L22.6101 9.82998C22.6101 9.82998 22.6401 9.76998 22.5901 9.74998C22.5501 9.72998 22.5201 9.79998 22.5201 9.79998L21.5901 11.82C21.7101 11.44 21.5901 11.11 21.7701 10.76C21.9801 10.37 21.8501 10.04 21.8601 9.85998C21.8701 9.67998 22.0201 9.62998 21.9801 9.58998C21.9401 9.54998 21.7901 9.62998 21.7301 9.86998C21.6701 10.11 21.8101 10.25 21.5701 10.73C21.3401 11.17 21.4901 11.39 21.3301 11.75L21.2501 9.54998C21.2501 9.54998 21.2501 9.47998 21.2101 9.47998C21.1701 9.47998 21.1701 9.54998 21.1701 9.54998L21.0901 11.77C21.0501 11.37 20.8101 11.11 20.8501 10.72C20.8901 10.28 20.6501 10.03 20.5901 9.85998C20.5301 9.68998 20.6501 9.58998 20.6001 9.55998C20.5501 9.53998 20.4401 9.66998 20.4801 9.91998C20.5201 10.16 20.7001 10.24 20.6601 10.77C20.6201 11.26 20.8401 11.41 20.8301 11.81L19.9101 9.80998C19.9101 9.80998 19.8801 9.74998 19.8401 9.75998C19.8001 9.77998 19.8201 9.83998 19.8201 9.83998L20.5901 11.92C20.4001 11.57 20.0801 11.42 19.9701 11.04C19.8401 10.62 19.5201 10.48 19.4001 10.34C19.2801 10.2 19.3501 10.06 19.3001 10.06C19.2401 10.06 19.1901 10.22 19.3201 10.44C19.4501 10.65 19.6501 10.65 19.8101 11.16C19.9601 11.63 20.2201 11.69 20.3601 12.06L18.7401 10.56C18.7401 10.56 18.6901 10.51 18.6601 10.54C18.6301 10.57 18.6801 10.62 18.6801 10.62L20.1901 12.25C19.8801 12 19.5301 11.98 19.2801 11.68C19.0001 11.34 18.6501 11.33 18.4901 11.25C18.3301 11.17 18.3401 11.01 18.2901 11.03C18.2401 11.05 18.2501 11.22 18.4501 11.37C18.6501 11.52 18.8301 11.44 19.1801 11.85C19.5001 12.23 19.7601 12.18 20.0301 12.47L17.9601 11.7C17.9601 11.7 17.9001 11.67 17.8801 11.72C17.8601 11.76 17.9201 11.79 17.9201 11.79L19.9401 12.72C19.5601 12.6 19.2301 12.72 18.8801 12.54C18.4901 12.33 18.1601 12.46 17.9801 12.45C17.8001 12.44 17.7501 12.29 17.7101 12.33C17.6701 12.37 17.7501 12.52 17.9901 12.58C18.2301 12.64 18.3701 12.5 18.8501 12.74C19.2901 12.97 19.5101 12.82 19.8701 12.98L17.6701 13.06C17.6701 13.06 17.6001 13.06 17.6001 13.1C17.6001 13.14 17.6701 13.14 17.6701 13.14L19.8901 13.22C19.4901 13.26 19.2301 13.5 18.8401 13.46C18.4001 13.42 18.1501 13.66 17.9801 13.72C17.8101 13.78 17.7101 13.66 17.6801 13.72C17.6601 13.77 17.7901 13.88 18.0401 13.85C18.2801 13.81 18.3601 13.63 18.9001 13.67C19.3901 13.71 19.5401 13.49 19.9401 13.5L17.9401 14.42C17.9401 14.42 17.8801 14.45 17.9001 14.49C17.9201 14.53 17.9801 14.51 17.9801 14.51L20.0601 13.74C19.7101 13.93 19.5601 14.25 19.1801 14.36C18.7601 14.49 18.6201 14.81 18.4801 14.93C18.3401 15.05 18.2001 14.98 18.2001 15.03C18.2001 15.09 18.3601 15.14 18.5801 15.01C18.7901 14.88 18.7901 14.68 19.3001 14.52C19.7701 14.37 19.8201 14.11 20.2001 13.97L18.7001 15.59C18.7001 15.59 18.6501 15.64 18.6801 15.67C18.7101 15.7 18.7601 15.65 18.7601 15.65L20.3901 14.14C20.1401 14.45 20.1201 14.8 19.8201 15.05C19.4801 15.33 19.4701 15.68 19.3901 15.84C19.3101 16 19.1501 15.99 19.1701 16.04C19.1901 16.09 19.3601 16.08 19.5101 15.88C19.6601 15.68 19.5801 15.5 19.9901 15.15C20.3701 14.83 20.3201 14.57 20.6101 14.3L19.8401 16.37C19.8401 16.37 19.8101 16.43 19.8601 16.45C19.9001 16.47 19.9301 16.41 19.9301 16.41L20.8601 14.39C20.7401 14.77 20.8601 15.1 20.6801 15.45C20.4701 15.84 20.6001 16.17 20.5901 16.35C20.5801 16.53 20.4301 16.58 20.4701 16.62C20.5101 16.66 20.6601 16.58 20.7201 16.34C20.7801 16.1 20.6401 15.96 20.8801 15.48C21.1101 15.04 20.9601 14.82 21.1201 14.46L21.2001 16.66C21.2001 16.66 21.2001 16.73 21.2401 16.73C21.2801 16.73 21.2801 16.66 21.2801 16.66L21.3601 14.44C21.4001 14.84 21.6401 15.1 21.6001 15.49C21.5601 15.93 21.8001 16.18 21.8601 16.35C21.9201 16.52 21.8001 16.62 21.8501 16.65C21.9001 16.67 22.0101 16.54 21.9801 16.29C21.9401 16.05 21.7601 15.97 21.8001 15.44C21.8401 14.95 21.6201 14.8 21.6301 14.4L22.5501 16.4C22.5501 16.4 22.5801 16.46 22.6201 16.44C22.6601 16.42 22.6401 16.36 22.6401 16.36L21.8701 14.28C22.0601 14.63 22.3801 14.78 22.4901 15.16C22.6201 15.58 22.9401 15.72 23.0601 15.86C23.1801 16 23.1101 16.14 23.1601 16.14C23.2201 16.14 23.2701 15.98 23.1401 15.76C23.0101 15.55 22.8101 15.55 22.6501 15.04C22.5001 14.57 22.2401 14.52 22.1001 14.14L23.7201 15.64C23.7201 15.64 23.7701 15.69 23.8001 15.66C23.8301 15.63 23.7801 15.58 23.7801 15.58L22.2701 13.95C22.5801 14.2 22.9301 14.22 23.1801 14.52C23.4601 14.86 23.8101 14.87 23.9701 14.95C24.1301 15.03 24.1201 15.19 24.1701 15.17C24.2201 15.15 24.2101 14.98 24.0101 14.83C23.8101 14.68 23.6301 14.76 23.2801 14.35C22.9601 13.97 22.7001 14.02 22.4301 13.73L24.5001 14.5C24.5001 14.5 24.5601 14.53 24.5801 14.48C24.6001 14.44 24.5301 14.41 24.5301 14.41L22.5101 13.48C22.8901 13.6 23.2201 13.48 23.5701 13.66C23.9601 13.87 24.2901 13.74 24.4701 13.75C24.6501 13.76 24.7001 13.91 24.7401 13.87C24.7801 13.83 24.7001 13.68 24.4601 13.62C24.2201 13.56 24.0801 13.7 23.6001 13.46C23.1601 13.23 22.9401 13.38 22.5801 13.22L24.7801 13.14C24.7801 13.14 24.8501 13.14 24.8501 13.1C24.8501 13.06 24.7801 13.06 24.7801 13.06H24.7701Z" fill="#F0AE0E"/>
<path d="M24.7701 13.03L22.7701 12.96C22.8601 12.94 22.9401 12.91 23.0201 12.88C23.2001 12.81 23.3801 12.75 23.5901 12.77C23.9201 12.8 24.1501 12.68 24.3101 12.59C24.3701 12.56 24.4201 12.53 24.4601 12.51C24.5501 12.48 24.6201 12.51 24.6701 12.52C24.7101 12.53 24.7601 12.55 24.7801 12.5C24.7801 12.49 24.7901 12.46 24.7701 12.43C24.7201 12.37 24.5901 12.31 24.4001 12.34C24.3101 12.35 24.2501 12.38 24.1801 12.42C24.0501 12.48 23.9001 12.55 23.5501 12.52C23.2801 12.5 23.1101 12.55 22.9501 12.61C22.8601 12.64 22.7701 12.67 22.6601 12.68L24.5301 11.82C24.5301 11.82 24.5801 11.8 24.5901 11.77C24.5901 11.75 24.5901 11.74 24.5901 11.72C24.5801 11.69 24.5501 11.68 24.5101 11.68C24.4901 11.68 24.4701 11.68 24.4701 11.68L22.6001 12.37C22.6701 12.31 22.7401 12.26 22.8001 12.2C22.9401 12.07 23.0801 11.94 23.2901 11.88C23.6101 11.78 23.7701 11.58 23.8801 11.43C23.9201 11.38 23.9601 11.33 23.9901 11.3C24.0601 11.24 24.1401 11.23 24.1901 11.23C24.2301 11.23 24.2801 11.23 24.2801 11.17C24.2801 11.16 24.2801 11.13 24.2401 11.11C24.1701 11.07 24.0201 11.07 23.8601 11.17C23.7801 11.22 23.7401 11.27 23.6801 11.33C23.5801 11.44 23.4701 11.56 23.1401 11.66C22.8801 11.74 22.7401 11.86 22.6101 11.97C22.5401 12.03 22.4601 12.1 22.3701 12.15L23.7701 10.64C23.7701 10.64 23.8201 10.55 23.7901 10.52C23.7501 10.48 23.7001 10.5 23.6701 10.54L22.2101 11.9C22.2501 11.82 22.2901 11.74 22.3301 11.66C22.4101 11.48 22.4901 11.31 22.6501 11.17C22.9101 10.96 22.9801 10.71 23.0301 10.53C23.0501 10.47 23.0601 10.41 23.0901 10.37C23.1301 10.28 23.2001 10.25 23.2501 10.23C23.2901 10.21 23.3301 10.19 23.3101 10.14C23.3101 10.12 23.2801 10.1 23.2501 10.1C23.1701 10.09 23.0301 10.14 22.9201 10.3C22.8701 10.37 22.8401 10.44 22.8201 10.51C22.7701 10.65 22.7101 10.8 22.4501 11.02C22.2401 11.2 22.1601 11.36 22.0801 11.51C22.0401 11.6 21.9901 11.68 21.9301 11.77L22.6401 9.83995C22.6401 9.83995 22.6401 9.81995 22.6401 9.79995C22.6401 9.75995 22.6301 9.73995 22.6001 9.72995C22.5701 9.71995 22.5401 9.72995 22.5201 9.74995C22.5101 9.76995 22.5001 9.77995 22.5001 9.78995L21.6701 11.6C21.6801 11.51 21.6801 11.42 21.6901 11.34C21.6901 11.14 21.7001 10.96 21.8001 10.77C21.9501 10.48 21.9301 10.22 21.9001 10.03C21.9001 9.95995 21.8901 9.90995 21.8901 9.85995C21.8901 9.76995 21.9401 9.70995 21.9801 9.66995C22.0101 9.63995 22.0401 9.59995 22.0101 9.56995C22.0101 9.55995 21.9801 9.53995 21.9401 9.54995C21.8601 9.56995 21.7601 9.66995 21.7101 9.85995C21.6901 9.94995 21.6901 10.02 21.7001 10.09C21.7001 10.23 21.7101 10.4 21.5501 10.71C21.4301 10.95 21.4101 11.13 21.4001 11.3C21.4001 11.4 21.3901 11.49 21.3601 11.6L21.2801 9.54995C21.2801 9.54995 21.2601 9.44995 21.2101 9.44995C21.1801 9.44995 21.1501 9.46995 21.1401 9.49995C21.1401 9.51995 21.1401 9.53995 21.1401 9.53995L21.0701 11.54C21.0501 11.45 21.0201 11.37 20.9901 11.29C20.9201 11.11 20.8601 10.93 20.8801 10.72C20.9101 10.39 20.7901 10.16 20.6901 9.99995C20.6601 9.93995 20.6301 9.88995 20.6201 9.84995C20.5901 9.75995 20.6201 9.68995 20.6301 9.63995C20.6401 9.59995 20.6601 9.55995 20.6101 9.52995C20.6001 9.52995 20.5701 9.51995 20.5401 9.53995C20.4801 9.58995 20.4201 9.71995 20.4501 9.90995C20.4601 9.99995 20.4901 10.06 20.5301 10.13C20.5901 10.26 20.6601 10.41 20.6301 10.76C20.6101 11.03 20.6601 11.2 20.7201 11.36C20.7501 11.45 20.7801 11.54 20.7901 11.65L19.9301 9.77995C19.9301 9.77995 19.9101 9.72995 19.8801 9.71995C19.8601 9.71995 19.8501 9.71995 19.8301 9.71995C19.7801 9.73995 19.7801 9.78995 19.8001 9.83995L20.4901 11.71C20.4301 11.64 20.3801 11.57 20.3201 11.51C20.1901 11.37 20.0601 11.23 20.0001 11.02C19.9001 10.7 19.7001 10.54 19.5501 10.43C19.5001 10.39 19.4501 10.35 19.4201 10.32C19.3601 10.25 19.3501 10.17 19.3501 10.12C19.3501 10.08 19.3501 10.03 19.3001 10.03C19.2701 10.03 19.2501 10.04 19.2401 10.07C19.2001 10.14 19.2001 10.29 19.3001 10.45C19.3501 10.53 19.4001 10.57 19.4501 10.63C19.5601 10.73 19.6801 10.84 19.7801 11.17C19.8601 11.43 19.9801 11.57 20.0901 11.7C20.1501 11.77 20.2201 11.85 20.2701 11.94L18.7601 10.54C18.7601 10.54 18.6801 10.49 18.6401 10.52C18.6001 10.56 18.6201 10.61 18.6501 10.64L20.0101 12.1C19.9301 12.06 19.8501 12.02 19.7701 11.98C19.5901 11.9 19.4201 11.82 19.2801 11.66C19.0701 11.41 18.8201 11.33 18.6401 11.28C18.5801 11.26 18.5201 11.25 18.4801 11.23C18.3901 11.19 18.3601 11.12 18.3401 11.07C18.3201 11.03 18.3001 10.99 18.2501 11.01C18.2401 11.01 18.2101 11.03 18.2101 11.07C18.2001 11.15 18.2601 11.29 18.4101 11.4C18.4801 11.45 18.5501 11.48 18.6201 11.5C18.7601 11.55 18.9101 11.61 19.1401 11.87C19.3201 12.08 19.4801 12.16 19.6301 12.24C19.7201 12.28 19.8001 12.33 19.8901 12.39L17.9601 11.68C17.9601 11.68 17.9401 11.68 17.9201 11.67C17.8801 11.67 17.8601 11.68 17.8501 11.71C17.8301 11.76 17.8701 11.8 17.9101 11.81L19.7201 12.64C19.6301 12.63 19.5401 12.63 19.4601 12.62C19.2601 12.62 19.0801 12.61 18.8901 12.51C18.6001 12.36 18.3401 12.38 18.1501 12.41C18.0801 12.41 18.0301 12.42 17.9801 12.42C17.8801 12.42 17.8301 12.36 17.7901 12.33C17.7601 12.3 17.7201 12.27 17.6901 12.3C17.6801 12.3 17.6601 12.33 17.6701 12.37C17.6901 12.45 17.7901 12.55 17.9801 12.6C18.0701 12.62 18.1401 12.62 18.2101 12.61C18.3501 12.61 18.5201 12.6 18.8301 12.76C19.0701 12.89 19.2501 12.9 19.4201 12.91C19.5201 12.91 19.6101 12.92 19.7201 12.95L17.6701 13.03C17.6701 13.03 17.5701 13.05 17.5701 13.1C17.5701 13.13 17.5901 13.16 17.6201 13.17C17.6401 13.17 17.6601 13.17 17.6601 13.17L19.6501 13.24C19.5601 13.26 19.4801 13.29 19.4001 13.32C19.2201 13.39 19.0401 13.45 18.8301 13.43C18.5001 13.4 18.2701 13.52 18.1101 13.62C18.0501 13.65 18.0001 13.68 17.9601 13.69C17.8701 13.72 17.8001 13.69 17.7501 13.68C17.7101 13.67 17.6601 13.65 17.6401 13.69C17.6401 13.7 17.6301 13.73 17.6501 13.76C17.7001 13.82 17.8301 13.88 18.0201 13.85C18.1101 13.84 18.1701 13.81 18.2401 13.77C18.3701 13.71 18.5201 13.64 18.8701 13.67C19.1401 13.69 19.3101 13.64 19.4701 13.58C19.5601 13.55 19.6501 13.52 19.7601 13.51L17.8901 14.37C17.8901 14.37 17.8401 14.39 17.8301 14.42C17.8301 14.44 17.8301 14.45 17.8301 14.47C17.8401 14.5 17.8701 14.51 17.9001 14.51C17.9201 14.51 17.9301 14.51 17.9501 14.5L19.8201 13.81C19.7501 13.87 19.6801 13.93 19.6201 13.98C19.4801 14.11 19.3401 14.24 19.1301 14.3C18.8101 14.4 18.6501 14.6 18.5301 14.75C18.4901 14.8 18.4501 14.85 18.4201 14.88C18.3501 14.94 18.2701 14.95 18.2201 14.95C18.1801 14.95 18.1301 14.95 18.1301 15C18.1301 15.02 18.1401 15.05 18.1701 15.06C18.2401 15.1 18.3901 15.1 18.5501 15C18.6301 14.95 18.6701 14.9 18.7301 14.85C18.8301 14.74 18.9401 14.62 19.2701 14.52C19.5301 14.44 19.6701 14.32 19.8001 14.21C19.8701 14.15 19.9501 14.08 20.0401 14.03L18.6401 15.54C18.6401 15.54 18.5901 15.62 18.6201 15.66C18.6301 15.67 18.6501 15.68 18.6701 15.68C18.7001 15.68 18.7201 15.67 18.7401 15.65L20.2001 14.29C20.1601 14.37 20.1201 14.45 20.0801 14.53C20.0001 14.71 19.9201 14.88 19.7601 15.01C19.5001 15.22 19.4301 15.47 19.3801 15.65C19.3601 15.72 19.3501 15.77 19.3201 15.81C19.2801 15.9 19.2101 15.93 19.1601 15.95C19.1201 15.97 19.0801 15.99 19.1001 16.04C19.1001 16.05 19.1201 16.08 19.1601 16.08C19.2401 16.09 19.3801 16.03 19.4901 15.88C19.5401 15.81 19.5701 15.74 19.5901 15.67C19.6401 15.54 19.7001 15.38 19.9601 15.16C20.1701 14.98 20.2501 14.82 20.3301 14.67C20.3701 14.58 20.4201 14.5 20.4801 14.41L19.7701 16.34C19.7701 16.34 19.7501 16.39 19.7701 16.42C19.7701 16.44 19.7901 16.45 19.8101 16.46C19.8101 16.46 19.8301 16.46 19.8401 16.46C19.8801 16.46 19.9101 16.43 19.9201 16.39L20.7501 14.58C20.7401 14.67 20.7301 14.76 20.7301 14.84C20.7301 15.04 20.7201 15.22 20.6201 15.41C20.4701 15.7 20.4901 15.96 20.5201 16.15C20.5201 16.22 20.5301 16.27 20.5201 16.32C20.5201 16.41 20.4701 16.47 20.4301 16.51C20.4001 16.54 20.3701 16.58 20.4001 16.61C20.4001 16.62 20.4301 16.64 20.4701 16.63C20.5501 16.61 20.6501 16.51 20.7001 16.32C20.7201 16.23 20.7201 16.16 20.7101 16.09C20.7101 15.95 20.7001 15.78 20.8601 15.47C20.9901 15.23 21.0001 15.05 21.0101 14.88C21.0101 14.78 21.0201 14.69 21.0501 14.58L21.1301 16.63C21.1301 16.63 21.1501 16.73 21.2001 16.73C21.2501 16.73 21.2701 16.68 21.2701 16.63L21.3401 14.64C21.3601 14.73 21.3901 14.81 21.4201 14.89C21.4901 15.07 21.5501 15.25 21.5301 15.46C21.5001 15.79 21.6201 16.02 21.7201 16.18C21.7501 16.24 21.7801 16.29 21.7901 16.33C21.8201 16.42 21.7901 16.49 21.7801 16.54C21.7701 16.58 21.7501 16.63 21.8001 16.65C21.8001 16.65 21.8101 16.65 21.8301 16.65C21.8401 16.65 21.8601 16.65 21.8801 16.63C21.9401 16.58 22.0001 16.45 21.9701 16.26C21.9601 16.17 21.9301 16.11 21.8901 16.04C21.8301 15.91 21.7601 15.76 21.7901 15.41C21.8101 15.14 21.7601 14.97 21.7001 14.81C21.6701 14.72 21.6401 14.63 21.6301 14.52L22.4901 16.39C22.4901 16.39 22.5101 16.44 22.5401 16.45C22.5601 16.45 22.5701 16.45 22.5901 16.45C22.6401 16.43 22.6401 16.38 22.6201 16.33L21.9301 14.46C21.9901 14.53 22.0401 14.6 22.1001 14.66C22.2301 14.8 22.3601 14.94 22.4201 15.14C22.5201 15.46 22.7201 15.62 22.8701 15.74C22.9201 15.78 22.9701 15.82 23.0001 15.85C23.0601 15.92 23.0701 16 23.0701 16.05C23.0701 16.09 23.0701 16.14 23.1201 16.14C23.1201 16.14 23.1701 16.13 23.1801 16.1C23.2201 16.03 23.2201 15.88 23.1201 15.72C23.0801 15.64 23.0201 15.6 22.9601 15.54C22.8501 15.44 22.7301 15.33 22.6301 15C22.5501 14.74 22.4301 14.6 22.3201 14.47C22.2601 14.4 22.1901 14.32 22.1401 14.23L23.6501 15.63C23.6501 15.63 23.6701 15.65 23.6901 15.66C23.7201 15.68 23.7501 15.67 23.7801 15.66C23.8201 15.62 23.8001 15.57 23.7601 15.54L22.4001 14.08C22.4801 14.12 22.5601 14.16 22.6401 14.2C22.8201 14.28 22.9901 14.36 23.1301 14.52C23.3401 14.77 23.5901 14.85 23.7701 14.9C23.8301 14.92 23.8901 14.94 23.9301 14.96C24.0101 15 24.0501 15.07 24.0701 15.12C24.0901 15.15 24.1001 15.19 24.1401 15.19C24.1401 15.19 24.1501 15.19 24.1601 15.19C24.1801 15.19 24.2001 15.16 24.2001 15.13C24.2101 15.05 24.1601 14.91 24.0001 14.8C23.9301 14.75 23.8601 14.72 23.7901 14.7C23.6601 14.65 23.5001 14.59 23.2801 14.33C23.1001 14.12 22.9401 14.04 22.7901 13.96C22.7001 13.92 22.6201 13.87 22.5301 13.81L24.4601 14.52C24.4601 14.52 24.4801 14.52 24.5001 14.53C24.5401 14.53 24.5601 14.52 24.5801 14.49C24.5901 14.46 24.5801 14.43 24.5601 14.41C24.5401 14.4 24.5301 14.39 24.5201 14.39L22.7101 13.56C22.8001 13.57 22.8901 13.57 22.9701 13.58C23.1701 13.58 23.3501 13.59 23.5401 13.69C23.8301 13.84 24.0901 13.82 24.2801 13.79C24.3501 13.79 24.4001 13.78 24.4501 13.78C24.5501 13.78 24.6001 13.83 24.6401 13.87C24.6601 13.89 24.6901 13.91 24.7101 13.91C24.7201 13.91 24.7301 13.91 24.7401 13.9C24.7501 13.9 24.7701 13.87 24.7601 13.83C24.7401 13.75 24.6401 13.65 24.4501 13.6C24.3701 13.58 24.2901 13.58 24.2201 13.58C24.0801 13.58 23.9101 13.59 23.6001 13.43C23.3601 13.31 23.1801 13.29 23.0101 13.28C22.9101 13.28 22.8201 13.27 22.7101 13.24L24.7601 13.16C24.7601 13.16 24.8601 13.14 24.8601 13.09C24.8601 13.04 24.8101 13.02 24.7601 13.02L24.7701 13.03ZM22.9701 12.64C23.1301 12.59 23.2901 12.53 23.5501 12.56C23.9101 12.59 24.0701 12.52 24.2101 12.45C24.2801 12.42 24.3401 12.39 24.4201 12.38C24.5901 12.35 24.7001 12.41 24.7301 12.44C24.7301 12.44 24.7401 12.45 24.7401 12.46C24.7401 12.46 24.7201 12.46 24.7101 12.45C24.6601 12.43 24.5701 12.4 24.4601 12.44C24.4101 12.46 24.3601 12.49 24.3001 12.52C24.1401 12.61 23.9301 12.73 23.6101 12.7C23.3801 12.68 23.2001 12.75 23.0101 12.82C22.9001 12.86 22.7801 12.91 22.6501 12.93C22.6501 12.86 22.6301 12.8 22.6101 12.73C22.7501 12.73 22.8601 12.69 22.9701 12.65V12.64ZM24.4901 11.72C24.4901 11.72 24.5001 11.72 24.5101 11.72C24.5201 11.72 24.5301 11.72 24.5301 11.72C24.5301 11.73 24.5101 11.75 24.5001 11.75L22.5701 12.63C22.5501 12.57 22.5301 12.51 22.5001 12.45L24.4901 11.71V11.72ZM22.6501 12C22.7801 11.89 22.9001 11.78 23.1601 11.7C23.5101 11.59 23.6201 11.46 23.7301 11.35C23.7801 11.29 23.8201 11.25 23.8901 11.21C24.0401 11.12 24.1601 11.13 24.2001 11.15C24.2101 11.15 24.2201 11.15 24.2201 11.16C24.2201 11.16 24.2001 11.16 24.1801 11.16C24.1201 11.16 24.0401 11.16 23.9501 11.24C23.9101 11.27 23.8701 11.32 23.8301 11.38C23.7201 11.52 23.5601 11.71 23.2601 11.81C23.0401 11.88 22.9001 12.01 22.7501 12.15C22.6601 12.23 22.5701 12.32 22.4601 12.39C22.4301 12.33 22.3901 12.27 22.3501 12.22C22.4801 12.16 22.5601 12.08 22.6601 12.01L22.6501 12ZM23.7101 10.56C23.7101 10.56 23.7401 10.54 23.7501 10.54C23.7501 10.54 23.7401 10.57 23.7301 10.58L22.2901 12.14C22.2901 12.14 22.2001 12.05 22.1601 12L23.7201 10.56H23.7101ZM22.1201 11.53C22.1901 11.38 22.2701 11.23 22.4701 11.06C22.7501 10.82 22.8101 10.66 22.8601 10.52C22.8901 10.45 22.9101 10.39 22.9601 10.32C23.0601 10.18 23.1801 10.14 23.2201 10.14C23.2301 10.14 23.2401 10.14 23.2401 10.14C23.2401 10.14 23.2201 10.15 23.2101 10.16C23.1601 10.19 23.0801 10.22 23.0301 10.33C23.0101 10.38 22.9901 10.43 22.9701 10.5C22.9201 10.67 22.8501 10.91 22.6101 11.11C22.4301 11.26 22.3501 11.43 22.2701 11.62C22.2201 11.73 22.1701 11.84 22.0901 11.95C22.0401 11.91 21.9801 11.87 21.9201 11.84C22.0101 11.74 22.0701 11.63 22.1201 11.53ZM22.5501 9.78995C22.5501 9.78995 22.5501 9.77995 22.5601 9.76995C22.5601 9.75995 22.5701 9.76995 22.5801 9.76995C22.5901 9.76995 22.5801 9.80995 22.5801 9.80995L21.8401 11.8C21.7801 11.77 21.7201 11.75 21.6601 11.73L22.5501 9.79995V9.78995ZM21.4501 11.29C21.4601 11.13 21.4801 10.96 21.6001 10.72C21.7701 10.4 21.7601 10.22 21.7501 10.07C21.7501 9.98995 21.7501 9.92995 21.7601 9.84995C21.8001 9.67995 21.8901 9.59995 21.9401 9.58995C21.9501 9.58995 21.9601 9.58995 21.9601 9.58995C21.9601 9.58995 21.9401 9.60995 21.9401 9.61995C21.9001 9.65995 21.8401 9.72995 21.8401 9.83995C21.8401 9.88995 21.8401 9.94995 21.8501 10.02C21.8701 10.2 21.9001 10.44 21.7501 10.72C21.6401 10.92 21.6401 11.11 21.6301 11.32C21.6301 11.44 21.6301 11.57 21.5901 11.7C21.5201 11.68 21.4601 11.67 21.3901 11.66C21.4401 11.53 21.4501 11.41 21.4501 11.29ZM21.1801 9.52995C21.1801 9.52995 21.1801 9.48995 21.2001 9.48995C21.2201 9.48995 21.2201 9.51995 21.2201 9.52995L21.3001 11.65C21.3001 11.65 21.2401 11.65 21.2001 11.65C21.1601 11.65 21.1401 11.65 21.1001 11.65L21.1801 9.52995ZM20.7401 11.33C20.6901 11.17 20.6401 11.01 20.6601 10.75C20.6901 10.39 20.6201 10.23 20.5501 10.09C20.5201 10.02 20.4901 9.95995 20.4801 9.87995C20.4501 9.70995 20.5101 9.59995 20.5401 9.56995C20.5401 9.56995 20.5501 9.55995 20.5601 9.55995C20.5601 9.55995 20.5601 9.57995 20.5501 9.58995C20.5301 9.63995 20.5001 9.72995 20.5401 9.83995C20.5601 9.88995 20.5801 9.93995 20.6201 9.99995C20.7101 10.16 20.8301 10.37 20.8001 10.69C20.7801 10.92 20.8501 11.1 20.9201 11.29C20.9601 11.4 21.0101 11.52 21.0301 11.65C20.9601 11.65 20.8901 11.67 20.8301 11.69C20.8301 11.55 20.7901 11.44 20.7501 11.33H20.7401ZM19.8101 9.80995C19.8101 9.80995 19.8001 9.76995 19.8101 9.76995C19.8201 9.76995 19.8401 9.78995 19.8401 9.79995L20.7201 11.73C20.6601 11.75 20.6001 11.77 20.5401 11.8L19.8001 9.80995H19.8101ZM20.1001 11.64C19.9901 11.52 19.8801 11.39 19.8001 11.14C19.6901 10.79 19.5601 10.68 19.4501 10.57C19.3901 10.52 19.3501 10.48 19.3101 10.41C19.2201 10.26 19.2301 10.14 19.2501 10.1C19.2501 10.09 19.2501 10.08 19.2601 10.08C19.2601 10.08 19.2601 10.1 19.2601 10.12C19.2601 10.18 19.2601 10.26 19.3401 10.35C19.3701 10.39 19.4201 10.43 19.4801 10.47C19.6201 10.58 19.8101 10.74 19.9101 11.04C19.9801 11.26 20.1101 11.4 20.2501 11.55C20.3301 11.64 20.4201 11.73 20.4901 11.84C20.4301 11.87 20.3701 11.91 20.3201 11.95C20.2601 11.82 20.1801 11.74 20.1101 11.64H20.1001ZM18.6601 10.59C18.6601 10.59 18.6401 10.56 18.6401 10.55C18.6401 10.55 18.6701 10.56 18.6801 10.57L20.2301 12.01C20.2301 12.01 20.1401 12.1 20.1001 12.14L18.6601 10.58V10.59ZM19.6201 12.17C19.4701 12.1 19.3201 12.02 19.1501 11.82C18.9101 11.54 18.7501 11.48 18.6101 11.43C18.5401 11.4 18.4801 11.38 18.4101 11.33C18.2701 11.23 18.2301 11.12 18.2301 11.07C18.2301 11.06 18.2301 11.05 18.2301 11.05C18.2301 11.05 18.2401 11.07 18.2501 11.08C18.2801 11.13 18.3101 11.21 18.4201 11.26C18.4701 11.28 18.5201 11.3 18.5901 11.32C18.7601 11.37 19.0001 11.44 19.2001 11.68C19.3501 11.86 19.5201 11.93 19.7101 12.02C19.8201 12.07 19.9301 12.12 20.0401 12.2C20.0001 12.25 19.9601 12.31 19.9301 12.37C19.8301 12.28 19.7201 12.22 19.6201 12.17ZM17.8901 11.75C17.8901 11.75 17.8601 11.73 17.8601 11.72C17.8601 11.71 17.9001 11.72 17.9001 11.72L19.8901 12.46C19.8601 12.52 19.8401 12.58 19.8201 12.64L17.8901 11.75ZM19.3901 12.85C19.2301 12.84 19.0501 12.82 18.8201 12.7C18.5001 12.53 18.3201 12.54 18.1701 12.55C18.0901 12.55 18.0301 12.55 17.9501 12.54C17.7801 12.5 17.7001 12.41 17.6901 12.36V12.34C17.6901 12.34 17.7101 12.35 17.7201 12.36C17.7601 12.4 17.8301 12.46 17.9401 12.46C17.9901 12.46 18.0501 12.46 18.1201 12.45C18.3001 12.43 18.5401 12.4 18.8201 12.55C19.0201 12.66 19.2101 12.66 19.4201 12.67C19.5401 12.67 19.6701 12.67 19.8001 12.71C19.7801 12.77 19.7701 12.84 19.7601 12.91C19.6301 12.86 19.5101 12.85 19.3901 12.84V12.85ZM17.6201 13.12C17.6201 13.12 17.5801 13.12 17.5801 13.1C17.5801 13.09 17.6101 13.08 17.6201 13.08L19.7401 13C19.7401 13 19.7401 13.06 19.7401 13.1C19.7401 13.14 19.7401 13.16 19.7401 13.2L17.6201 13.12ZM19.4301 13.56C19.2701 13.61 19.1101 13.67 18.8501 13.64C18.4901 13.61 18.3301 13.68 18.1901 13.75C18.1201 13.78 18.0601 13.81 17.9801 13.82C17.8101 13.85 17.7001 13.79 17.6701 13.76C17.6701 13.76 17.6601 13.75 17.6601 13.74C17.6601 13.74 17.6801 13.74 17.6901 13.75C17.7401 13.77 17.8301 13.8 17.9401 13.76C17.9901 13.74 18.0401 13.71 18.1001 13.68C18.2601 13.59 18.4701 13.47 18.7901 13.5C19.0201 13.52 19.2001 13.45 19.3901 13.38C19.5001 13.34 19.6201 13.29 19.7501 13.27C19.7501 13.34 19.7701 13.41 19.7901 13.47C19.6501 13.47 19.5401 13.51 19.4301 13.55V13.56ZM17.9001 14.48C17.9001 14.48 17.8601 14.49 17.8601 14.48C17.8601 14.47 17.8801 14.45 17.8901 14.45L19.8201 13.57C19.8401 13.63 19.8601 13.69 19.8901 13.75L17.9001 14.49V14.48ZM19.7401 14.2C19.6101 14.31 19.4801 14.42 19.2301 14.5C18.8801 14.61 18.7701 14.74 18.6701 14.85C18.6201 14.91 18.5701 14.95 18.5101 14.99C18.3601 15.08 18.2401 15.07 18.2001 15.05C18.1901 15.05 18.1801 15.05 18.1801 15.04C18.1801 15.04 18.2001 15.04 18.2101 15.04C18.2701 15.04 18.3501 15.04 18.4401 14.96C18.4801 14.93 18.5201 14.88 18.5601 14.83C18.6701 14.69 18.8301 14.5 19.1301 14.4C19.3501 14.33 19.4901 14.2 19.6401 14.06C19.7301 13.98 19.8201 13.89 19.9301 13.82C19.9601 13.88 20.0001 13.94 20.0401 13.99C19.9101 14.05 19.8301 14.13 19.7401 14.2ZM18.6801 15.64C18.6801 15.64 18.6501 15.67 18.6401 15.66C18.6401 15.66 18.6501 15.63 18.6601 15.62L20.1001 14.07C20.1001 14.07 20.1901 14.16 20.2301 14.2L18.6701 15.64H18.6801ZM20.2701 14.68C20.2001 14.83 20.1201 14.98 19.9201 15.15C19.6401 15.39 19.5801 15.55 19.5301 15.69C19.5001 15.76 19.4801 15.82 19.4301 15.89C19.3301 16.03 19.2201 16.07 19.1701 16.07C19.1601 16.07 19.1501 16.07 19.1501 16.07C19.1501 16.07 19.1701 16.06 19.1801 16.05C19.2301 16.02 19.3101 15.99 19.3601 15.88C19.3801 15.83 19.4001 15.78 19.4201 15.71C19.4701 15.54 19.5401 15.3 19.7801 15.1C19.9601 14.95 20.0401 14.78 20.1201 14.59C20.1701 14.48 20.2201 14.36 20.3001 14.26C20.3501 14.3 20.4101 14.34 20.4701 14.37C20.3801 14.47 20.3201 14.58 20.2701 14.68ZM19.8401 16.41C19.8401 16.41 19.8201 16.44 19.8101 16.44C19.8001 16.44 19.8101 16.4 19.8101 16.4L20.5501 14.41C20.6101 14.44 20.6701 14.46 20.7301 14.48L19.8501 16.41H19.8401ZM20.9401 14.91C20.9301 15.08 20.9101 15.25 20.7901 15.48C20.6201 15.8 20.6301 15.98 20.6401 16.13C20.6401 16.21 20.6401 16.27 20.6301 16.35C20.5901 16.52 20.5001 16.6 20.4501 16.61C20.4401 16.61 20.4301 16.61 20.4301 16.61C20.4301 16.61 20.4401 16.59 20.4501 16.58C20.4901 16.54 20.5501 16.47 20.5501 16.36C20.5501 16.31 20.5501 16.25 20.5401 16.18C20.5201 16 20.4901 15.75 20.6401 15.48C20.7501 15.28 20.7501 15.09 20.7601 14.88C20.7601 14.76 20.7601 14.63 20.8001 14.5C20.8601 14.52 20.9301 14.53 21.0001 14.54C20.9501 14.67 20.9401 14.79 20.9401 14.91ZM21.2101 16.67C21.2101 16.67 21.2101 16.71 21.1901 16.71C21.1701 16.71 21.1701 16.68 21.1701 16.67L21.0901 14.55C21.0901 14.55 21.1501 14.55 21.1901 14.55C21.2301 14.55 21.2501 14.55 21.2901 14.55L21.2101 16.67ZM21.6501 14.87C21.7001 15.03 21.7601 15.19 21.7301 15.45C21.7001 15.81 21.7701 15.97 21.8401 16.11C21.8701 16.18 21.9001 16.24 21.9101 16.32C21.9401 16.49 21.8801 16.6 21.8501 16.63C21.8501 16.63 21.8401 16.64 21.8301 16.64C21.8301 16.64 21.8301 16.62 21.8401 16.61C21.8601 16.56 21.8901 16.47 21.8501 16.36C21.8301 16.31 21.8101 16.26 21.7701 16.2C21.6801 16.04 21.5601 15.83 21.5901 15.51C21.6101 15.28 21.5401 15.1 21.4701 14.91C21.4301 14.8 21.3801 14.68 21.3601 14.55C21.4301 14.55 21.5001 14.53 21.5601 14.51C21.5601 14.65 21.6001 14.76 21.6401 14.87H21.6501ZM22.5801 16.4C22.5801 16.4 22.5901 16.44 22.5801 16.44C22.5701 16.44 22.5501 16.42 22.5501 16.41L21.6701 14.48C21.7301 14.46 21.7901 14.44 21.8501 14.41L22.5901 16.4H22.5801ZM22.3001 14.56C22.4101 14.69 22.5201 14.81 22.6001 15.07C22.7101 15.42 22.8401 15.53 22.9501 15.63C23.0101 15.68 23.0501 15.73 23.0901 15.79C23.1801 15.94 23.1701 16.06 23.1501 16.1C23.1501 16.11 23.1501 16.12 23.1401 16.12C23.1401 16.12 23.1401 16.1 23.1401 16.09C23.1401 16.03 23.1401 15.95 23.0601 15.86C23.0301 15.82 22.9801 15.78 22.9201 15.74C22.7801 15.63 22.5901 15.47 22.4901 15.17C22.4201 14.95 22.2901 14.81 22.1501 14.66C22.0701 14.57 21.9801 14.48 21.9101 14.37C21.9701 14.34 22.0301 14.3 22.0801 14.26C22.1401 14.39 22.2201 14.47 22.2901 14.57L22.3001 14.56ZM23.7301 15.62C23.7301 15.62 23.7501 15.65 23.7501 15.66C23.7501 15.66 23.7201 15.65 23.7101 15.64L22.1601 14.2C22.1601 14.2 22.2501 14.11 22.3001 14.07L23.7401 15.63L23.7301 15.62ZM22.7701 14.03C22.9201 14.11 23.0701 14.18 23.2401 14.38C23.4801 14.66 23.6401 14.72 23.7801 14.77C23.8501 14.8 23.9101 14.82 23.9801 14.87C24.1201 14.98 24.1601 15.08 24.1601 15.13C24.1601 15.14 24.1601 15.15 24.1601 15.15C24.1601 15.15 24.1501 15.13 24.1401 15.12C24.1101 15.07 24.0801 14.99 23.9701 14.94C23.9201 14.92 23.8701 14.9 23.8001 14.88C23.6301 14.83 23.3901 14.76 23.1901 14.52C23.0401 14.34 22.8701 14.26 22.6801 14.18C22.5701 14.13 22.4601 14.08 22.3501 14C22.3901 13.95 22.4301 13.89 22.4601 13.83C22.5601 13.92 22.6701 13.98 22.7701 14.03ZM24.5001 14.45C24.5001 14.45 24.5301 14.47 24.5301 14.48C24.5301 14.49 24.4901 14.48 24.4901 14.48L22.5001 13.74C22.5301 13.68 22.5501 13.63 22.5701 13.56L24.5001 14.44V14.45ZM23.0101 13.35C23.1801 13.36 23.3501 13.38 23.5801 13.5C23.9001 13.67 24.0801 13.66 24.2301 13.65C24.3101 13.65 24.3701 13.65 24.4501 13.66C24.6201 13.7 24.7001 13.79 24.7101 13.84C24.7101 13.85 24.7101 13.86 24.7101 13.86C24.7101 13.86 24.6901 13.85 24.6801 13.84C24.6401 13.8 24.5701 13.74 24.4601 13.74C24.4101 13.74 24.3501 13.74 24.2801 13.75C24.1001 13.77 23.8601 13.8 23.5801 13.65C23.3801 13.54 23.1901 13.54 22.9801 13.53C22.8601 13.53 22.7301 13.53 22.6001 13.49C22.6201 13.42 22.6301 13.36 22.6401 13.29C22.7701 13.34 22.8901 13.35 23.0101 13.35ZM24.7701 13.12L22.6501 13.2C22.6501 13.2 22.6501 13.14 22.6501 13.1C22.6501 13.06 22.6501 13.04 22.6501 13L24.7701 13.08C24.7701 13.08 24.8101 13.08 24.8101 13.1C24.8101 13.12 24.7801 13.12 24.7701 13.12Z" fill="#80340A"/>
<path d="M23.5901 13.5899C23.3501 13.3799 23.0501 13.4799 22.6701 13.3599C22.6801 13.2899 22.6901 13.2099 22.6901 13.1399L23.6501 13.1099L22.6901 13.0799C22.6901 13.0099 22.6901 12.9299 22.6701 12.8599C23.0201 12.7899 23.2201 12.5999 23.5901 12.6499C23.2901 12.5499 23.0501 12.7499 22.6501 12.7899C22.6301 12.7199 22.6101 12.6499 22.5901 12.5799L23.4701 12.1799L22.5701 12.5199C22.5401 12.4499 22.5101 12.3899 22.4701 12.3299C22.7601 12.1299 22.8801 11.8799 23.2401 11.7799C22.9201 11.7999 22.7801 12.0799 22.4301 12.2699C22.3901 12.2099 22.3401 12.1499 22.2901 12.0999L22.9501 11.3899L22.2401 12.0499C22.1901 11.9999 22.1301 11.9499 22.0701 11.9099C22.2701 11.6099 22.2801 11.3299 22.5701 11.1099C22.2901 11.2499 22.2601 11.5599 22.0101 11.8699C21.9501 11.8299 21.8801 11.7999 21.8201 11.7599L22.1601 10.8599L21.7601 11.7399C21.6901 11.7099 21.6201 11.6899 21.5501 11.6799C21.6201 11.3299 21.5201 11.0699 21.7101 10.7499C21.5001 10.9899 21.5901 11.2899 21.4801 11.6699C21.4101 11.6599 21.3301 11.6499 21.2601 11.6499L21.2201 10.6899L21.1901 11.6499C21.1201 11.6499 21.0401 11.6499 20.9701 11.6699C20.9001 11.3199 20.7101 11.1199 20.7601 10.7499C20.6601 11.0499 20.8601 11.2899 20.9001 11.6899C20.8301 11.7099 20.7601 11.7299 20.6901 11.7499L20.2901 10.8699L20.6301 11.7699C20.5601 11.7999 20.5001 11.8299 20.4401 11.8699C20.2401 11.5799 19.9901 11.4599 19.8901 11.0999C19.9101 11.4199 20.1901 11.5599 20.3801 11.9099C20.3201 11.9499 20.2601 11.9999 20.2101 12.0499L19.5001 11.3899L20.1601 12.0999C20.1101 12.1499 20.0601 12.2099 20.0201 12.2699C19.7201 12.0799 19.4401 12.0599 19.2201 11.7699C19.3601 12.0499 19.6701 12.0799 19.9801 12.3299C19.9401 12.3899 19.9101 12.4599 19.8801 12.5199L18.9801 12.1799L19.8601 12.5799C19.8301 12.6499 19.8101 12.7199 19.8001 12.7899C19.4501 12.7199 19.1901 12.8199 18.8701 12.6299C19.1101 12.8399 19.4101 12.7499 19.7901 12.8599C19.7801 12.9299 19.7701 13.0099 19.7701 13.0799L18.8101 13.1199L19.7701 13.1599C19.7701 13.2299 19.7701 13.3099 19.7901 13.3799C19.4401 13.4499 19.2401 13.6399 18.8701 13.5899C19.1701 13.6899 19.4101 13.4899 19.8101 13.4499C19.8301 13.5199 19.8501 13.5899 19.8701 13.6599L18.9901 14.0599L19.8901 13.7199C19.9201 13.7899 19.9501 13.8499 19.9901 13.9099C19.7001 14.1099 19.5801 14.3599 19.2201 14.4599C19.5401 14.4399 19.6801 14.1599 20.0301 13.9699C20.0701 14.0299 20.1201 14.0899 20.1701 14.1399L19.5101 14.8499L20.2201 14.1899C20.2701 14.2399 20.3301 14.2899 20.3901 14.3299C20.1901 14.6299 20.1801 14.9099 19.8901 15.1399C20.1701 14.9999 20.2001 14.6899 20.4501 14.3799C20.5101 14.4199 20.5801 14.4599 20.6401 14.4899L20.3001 15.3899L20.7001 14.5099C20.7701 14.5399 20.8401 14.5599 20.9101 14.5699C20.8401 14.9199 20.9401 15.1799 20.7501 15.4999C20.9601 15.2599 20.8601 14.9599 20.9801 14.5799C21.0501 14.5899 21.1301 14.5999 21.2001 14.5999L21.2401 15.5599L21.2801 14.5999C21.3501 14.5999 21.4301 14.5999 21.5001 14.5799C21.5701 14.9299 21.7601 15.1299 21.7101 15.4999C21.8101 15.1999 21.6101 14.9599 21.5701 14.5599C21.6401 14.5399 21.7101 14.5199 21.7801 14.4999L22.1801 15.3799L21.8401 14.4799C21.9101 14.4499 21.9701 14.4199 22.0301 14.3799C22.2301 14.6699 22.4801 14.7899 22.5801 15.1499C22.5601 14.8299 22.2801 14.6899 22.0901 14.3399C22.1501 14.2999 22.2101 14.2499 22.2601 14.1999L22.9701 14.8599L22.3101 14.1499C22.3601 14.0999 22.4101 14.0399 22.4501 13.9799C22.7501 14.1699 23.0301 14.1899 23.2601 14.4799C23.1201 14.1999 22.8101 14.1699 22.5001 13.9199C22.5401 13.8599 22.5701 13.7899 22.6101 13.7199L23.5101 14.0599L22.6301 13.6599C22.6601 13.5899 22.6801 13.5199 22.6901 13.4499C23.0401 13.5199 23.3001 13.4199 23.6201 13.6099L23.5901 13.5899Z" fill="#80340A"/>
<path d="M21.2 11.6899C20.42 11.6899 19.78 12.3199 19.78 13.1099C19.78 13.8999 20.42 14.5299 21.2 14.5299C21.98 14.5299 22.62 13.8899 22.62 13.1099C22.62 12.3299 21.98 11.6899 21.2 11.6899Z" fill="#F0AE0E"/>
<path d="M21.6899 12.81C21.7899 12.81 21.8799 12.85 21.8899 12.9C21.7799 13.02 21.5999 13.01 21.4899 12.92C21.5399 12.84 21.6199 12.81 21.6899 12.81ZM21.6899 12.79C21.5899 12.79 21.4999 12.83 21.4399 12.92C21.5499 13.02 21.7999 13.03 21.9699 12.91C21.8999 12.83 21.7899 12.79 21.6899 12.79Z" fill="#803511"/>
<path d="M21.7101 12.72C21.5601 12.72 21.5301 12.75 21.4601 12.81C21.3901 12.87 21.3601 12.85 21.3501 12.87C21.3401 12.88 21.3501 12.91 21.3701 12.9C21.3901 12.89 21.4401 12.87 21.5001 12.81C21.5701 12.75 21.6301 12.75 21.7001 12.75C21.9001 12.75 22.0101 12.92 22.0401 12.91C22.0601 12.9 21.9301 12.72 21.7001 12.72H21.7101Z" fill="#80340A"/>
<path d="M22.11 12.7901C21.85 12.5701 21.53 12.5301 21.35 12.7001C21.31 12.7601 21.28 12.8201 21.27 12.8901C21.25 13.0201 21.29 13.1601 21.39 13.3001C21.38 13.3001 21.36 13.3101 21.35 13.3201C21.26 13.1501 21.23 12.9701 21.26 12.8101C21.26 12.7701 21.28 12.7201 21.29 12.6801C21.54 12.4801 21.87 12.4601 22.12 12.7901H22.11Z" fill="#80340A"/>
<path d="M21.7901 12.9C21.7901 12.96 21.7401 13 21.6901 13C21.6401 13 21.5901 12.96 21.5901 12.9C21.5901 12.84 21.6301 12.8 21.6901 12.8C21.7501 12.8 21.7901 12.84 21.7901 12.9Z" fill="#80340A"/>
<path d="M21.9801 12.97C21.7901 13.12 21.6001 13.1 21.4901 13.04C21.3801 12.97 21.3801 12.95 21.4001 12.95C21.4201 12.95 21.4401 12.97 21.5301 13.02C21.6201 13.06 21.7501 13.06 21.9801 12.97Z" fill="#80340A"/>
<path d="M20.9699 13.3C20.9699 13.3 20.8899 13.35 20.8899 13.4C20.8899 13.45 20.9399 13.5 20.9899 13.5C21.0199 13.5 21.0499 13.48 21.0699 13.46C21.1099 13.49 21.1599 13.49 21.1899 13.49H21.1999C21.1999 13.49 21.2799 13.49 21.3199 13.46C21.3399 13.49 21.3699 13.5 21.3999 13.5C21.4599 13.5 21.4999 13.46 21.4999 13.4C21.4999 13.35 21.4699 13.31 21.4199 13.3C21.4499 13.3 21.4599 13.34 21.4599 13.36C21.4599 13.4 21.4299 13.43 21.3899 13.43C21.3499 13.43 21.3299 13.4 21.3199 13.37C21.3099 13.39 21.2699 13.46 21.1799 13.46C21.0899 13.46 21.0499 13.39 21.0399 13.37C21.0399 13.41 21.0099 13.43 20.9699 13.43C20.9299 13.43 20.8999 13.4 20.8999 13.36C20.8999 13.33 20.9199 13.31 20.9399 13.3H20.9699Z" fill="#80340A"/>
<path d="M21.0801 13.6001C20.9701 13.6001 20.9201 13.7001 20.8201 13.7701C20.8801 13.7501 20.9201 13.7001 21.0001 13.6601C21.0801 13.6201 21.1501 13.6601 21.1901 13.6601C21.1901 13.6601 21.3001 13.6101 21.3801 13.6601C21.4601 13.7001 21.5001 13.7501 21.5601 13.7701C21.4601 13.7001 21.4101 13.6001 21.3001 13.6001C21.2801 13.6001 21.2301 13.6101 21.1901 13.6301C21.1901 13.6301 21.1001 13.6001 21.0801 13.6001Z" fill="#80340A"/>
<path d="M21.0501 13.73C21.0501 13.73 20.9501 13.74 20.8601 13.77C21.0601 13.72 21.1101 13.79 21.2001 13.79C21.2901 13.79 21.3301 13.72 21.5401 13.77C21.3201 13.7 21.2701 13.75 21.2001 13.75C21.2001 13.75 21.1201 13.73 21.0501 13.74V13.73Z" fill="#80340A"/>
<path d="M20.8701 13.77C20.8701 13.77 20.8401 13.77 20.8301 13.77C21.0701 13.79 20.9501 13.93 21.2001 13.93C21.4501 13.93 21.3401 13.8 21.5701 13.77C21.3201 13.75 21.4001 13.89 21.2001 13.89C21.0101 13.89 21.0701 13.76 20.8701 13.77Z" fill="#80340A"/>
<path d="M21.4 14.1299C21.4 14.0199 21.31 13.9299 21.2 13.9299C21.09 13.9299 21 14.0199 21 14.1299C21.02 14.0399 21.11 13.9699 21.2 13.9699C21.29 13.9699 21.38 14.0399 21.4 14.1299Z" fill="#80340A"/>
<path d="M20.29 12.7901C20.55 12.5701 20.87 12.5301 21.05 12.7001C21.09 12.7601 21.12 12.8201 21.13 12.8901C21.15 13.0201 21.11 13.1601 21.01 13.3001C21.02 13.3001 21.04 13.3101 21.06 13.3201C21.15 13.1501 21.18 12.9701 21.15 12.8101C21.15 12.7701 21.13 12.7201 21.11 12.6801C20.86 12.4801 20.53 12.4601 20.28 12.7901H20.29Z" fill="#80340A"/>
<path d="M20.6899 12.72C20.8399 12.72 20.8699 12.75 20.9399 12.81C21.0099 12.87 21.0399 12.85 21.0499 12.87C21.0599 12.88 21.0499 12.91 21.0299 12.9C21.0099 12.89 20.9599 12.87 20.8999 12.81C20.8299 12.75 20.7699 12.75 20.6999 12.75C20.4999 12.75 20.3899 12.92 20.3599 12.91C20.3399 12.9 20.4699 12.72 20.6999 12.72H20.6899Z" fill="#80340A"/>
<path d="M20.6899 12.81C20.7899 12.81 20.8799 12.85 20.8899 12.9C20.7799 13.02 20.5999 13.01 20.4899 12.92C20.5399 12.84 20.6199 12.81 20.6899 12.81ZM20.6899 12.79C20.5899 12.79 20.4999 12.83 20.4399 12.92C20.5499 13.02 20.7999 13.03 20.9699 12.91C20.8999 12.83 20.7899 12.79 20.6899 12.79Z" fill="#803511"/>
<path d="M20.8001 12.9C20.8001 12.96 20.7501 13 20.7001 13C20.6501 13 20.6001 12.96 20.6001 12.9C20.6001 12.84 20.6401 12.8 20.7001 12.8C20.7601 12.8 20.8001 12.84 20.8001 12.9Z" fill="#80340A"/>
<path d="M20.4299 12.97C20.6199 13.12 20.8099 13.1 20.9199 13.04C21.0299 12.97 21.0299 12.95 21.0099 12.95C20.9899 12.95 20.9699 12.97 20.8799 13.02C20.7899 13.06 20.6599 13.06 20.4299 12.97Z" fill="#80340A"/>
</g>
<defs>
<clipPath id="clip0_485_3056">
<rect width="42.39" height="26.2" fill="white"/>
</clipPath>
</defs>
</svg>
