<svg xmlns="http://www.w3.org/2000/svg" width="29" height="29" fill="none" viewBox="0 0 29 29"><path fill="currentColor" stroke="currentColor" d="M14.5.5C6.78.5.5 6.78.5 14.5s6.28 14 14 14h14v-14c0-7.72-6.28-14-14-14Zm12.833 26.833H14.5c-7.076 0-12.833-5.757-12.833-12.833S7.424 1.667 14.5 1.667 27.333 7.424 27.333 14.5zM15.667 14.5a1.167 1.167 0 1 1-2.335 0 1.167 1.167 0 0 1 2.335 0Zm5.833 0a1.167 1.167 0 1 1-2.334 0 1.167 1.167 0 0 1 2.334 0Zm-11.667 0a1.167 1.167 0 1 1-2.334 0 1.167 1.167 0 0 1 2.334 0Z"/></svg>